<?xml version="1.0" standalone="no"?>
<svg viewBox="0 0 200 200" xmlns="http://www.w3.org/2000/svg">
  <path fill="#9071BB" d="M46.7,-63.6C62.5,-52.8,78.7,-41.8,86.7,-26.1C94.7,-10.3,94.5,10.2,86.6,26.2C78.8,42.3,63.2,53.9,47.5,61.9C31.8,69.9,15.9,74.2,-0.6,75C-17.1,75.8,-34.1,73.1,-48.5,64.7C-62.8,56.3,-74.5,42.1,-78.7,26.2C-82.9,10.4,-79.8,-7.3,-72.8,-22C-65.8,-36.8,-55,-48.8,-42.2,-60.6C-29.4,-72.4,-14.7,-84,0.4,-84.5C15.4,-85.1,30.9,-74.4,46.7,-63.6Z" transform="translate(100 100)" />
</svg>
